<?xml version="1.0" encoding="utf-8"?>
<!-- Generator: Adobe Illustrator 23.0.2, SVG Export Plug-In . SVG Version: 6.00 Build 0)  -->
<svg version="1.1" id="Capa_3" xmlns="http://www.w3.org/2000/svg" xmlns:xlink="http://www.w3.org/1999/xlink" x="0px" y="0px"
	 viewBox="0 0 728.5 239.2" style="enable-background:new 0 0 728.5 239.2;" xml:space="preserve">
<style type="text/css">
	.st0{fill:trannsparent;
			-webkit-animation: cruz 3s forwards 8s;
			-moz-animation: cruz 3s forwards 8s;
			-o-animation: cruz 3s forwards 8s;
			animation: cruz 3s forwards 8s;
	}
	.st1{fill:none;
	stroke:transparent;
	stroke-miterlimit:10;
			-webkit-animation: destellos 3s forwards 10s;
			-moz-animation: destellos 3s forwards 10s;
			-o-animation: destellos 3s forwards 10s;
			animation: destellos 3s forwards 10s;
	}
	@-webkit-keyframes destellos {
			from {
				stroke: transparent;
			}

			to {
				
				stroke: rgba(255, 227, 191, 0.5);
			}
		}

		@-keyframes destellos {
			from {
				stroke: transparent;
			}

			to {
				
				stroke: rgba(255, 227, 191, 0.5);
			}
		}
		@-webkit-keyframes cruz {
			from {
				fill: transparent;
			}

			to {
				
				fill: rgba(255, 227, 191, 0.5);
			}
		}

		@-keyframes cruz {
			from {
				fill: transparent;
			}

			to {
				
				fill: rgba(255, 227, 191, 0.5);
			}
		}
</style>
<path class="st0" d="M607.7,95c0,0,2.4,4.1,0.6,5.2c-1.3,0.8-3.4-3-3.4-3h-6.5v32.9l4.3,2.8l-3.8,1.2l-2.8,4.4l0,0.1l-2.7-4.4
	l-3.8-1.2l4.3-2.8V97.4h-6.5c0,0-2.1,3.8-3.4,3c-1.9-1.2,0.6-5.2,0.6-5.2s-2.7-4.6-0.9-5.2c2.6-0.9,3.7,3.7,3.7,3.7l6.5,0.2
	l-0.7-13.7c0,0-1.4,1.7-2.8,1.3C589,80.9,589,78,589,78l6.3-0.1l0-0.1h8c0,0,0,2.9-1.4,3.4s-2.8-1.3-2.8-1.3l-0.7,13.7l6.5-0.2
	c0,0,1.2-4.7,3.7-3.7C610.4,90.4,607.7,95,607.7,95z M619,124.2c0-1.1,0-2.1,0.2-2.8c0.1-0.7,0.3-1.3,0.7-1.8c0.3-0.4,0.8-0.8,1.5-1
	c0.6-0.2,1.5-0.4,2.5-0.4c0.2,0,0.3-0.1,0.4-0.3c0.1-0.2,0.2-0.4,0.2-0.6c0-0.2,0-0.4-0.1-0.6s-0.2-0.3-0.4-0.3c-0.7,0-1.4,0-2,0
	c-0.6,0-1.2,0.1-1.8,0.1s-1.2,0.1-1.8,0.1s-1.3,0-2,0c-1.2,0-2.5,0-3.9-0.2c-1.4-0.1-2.6-0.2-3.7-0.2c-0.2,0-0.4,0.1-0.5,0.3
	s-0.2,0.4-0.2,0.6c0,0.2,0.1,0.4,0.2,0.6s0.3,0.3,0.5,0.3c1,0.1,1.9,0.2,2.5,0.5c0.6,0.3,1.1,0.6,1.4,1.1c0.3,0.5,0.6,1.1,0.7,1.8
	c0.1,0.7,0.2,1.6,0.2,2.6v27.4c0,1.2-0.1,2.2-0.2,3.2c-0.2,1-0.4,1.8-0.8,2.4c-0.4,0.7-0.9,1.2-1.6,1.6c-0.7,0.4-1.5,0.6-2.4,0.6
	c-0.7,0-1.2-0.1-1.7-0.4c-0.5-0.2-0.7-0.6-0.7-1c0-0.3,0.1-0.6,0.4-0.9s0.4-0.6,0.4-0.9c0-0.6-0.2-1.1-0.7-1.6
	c-0.5-0.5-1.1-0.7-1.9-0.7c-0.4,0-0.8,0.1-1.2,0.3s-0.6,0.4-0.8,0.7c-0.2,0.3-0.4,0.6-0.5,0.9c-0.1,0.3-0.2,0.6-0.2,0.9
	c0,1.4,0.6,2.5,1.8,3.4c1.2,0.8,2.8,1.3,4.9,1.3c1.5,0,2.9-0.3,4.3-0.9s2.5-1.4,3.4-2.5c1-1.1,1.7-2.4,2.3-3.9
	c0.6-1.5,0.8-3.1,0.8-4.9V124.2z M571,122.6c0.3-0.8,0.8-1.5,1.4-2c0.6-0.5,1.2-1,2-1.2c0.8-0.3,1.6-0.4,2.4-0.4
	c1.2,0,2.2,0.1,3.1,0.4c0.9,0.3,1.6,0.7,2.2,1.4c0.6,0.7,1.1,1.6,1.5,2.8c0.4,1.2,0.8,2.7,1.1,4.6c0,0.2,0.1,0.4,0.3,0.4
	c0.2,0.1,0.3,0.1,0.5,0.1c0.2,0,0.3-0.1,0.5-0.2c0.1-0.1,0.2-0.2,0.2-0.3c-0.1-1.2-0.2-2.3-0.3-3.2c-0.1-0.9-0.2-1.9-0.2-3
	c0-0.8,0-1.6,0.1-2.4c0.1-0.8,0.2-1.5,0.3-2.3c0-0.2,0-0.3-0.2-0.4c-0.1-0.1-0.3-0.1-0.5-0.2c-0.2,0-0.3,0-0.5,0.1
	c-0.2,0.1-0.3,0.2-0.4,0.3c-0.2,0.4-0.5,0.6-0.9,0.6c-0.3,0-0.5-0.1-0.8-0.2c-0.3-0.1-0.6-0.2-1.1-0.4c-0.8-0.3-1.5-0.6-2.2-0.7
	c-0.7-0.1-1.5-0.2-2.4-0.2c-1.5,0-2.9,0.2-4.3,0.6c-1.4,0.4-2.6,1-3.7,1.8c-1.1,0.8-1.9,1.9-2.6,3.3c-0.7,1.4-1,3.1-1,5.1
	c0,2,0.3,3.6,0.8,4.9c0.5,1.3,1.2,2.5,2.1,3.4c0.9,0.9,1.9,1.8,3,2.4c1.1,0.7,2.2,1.3,3.3,2c0.8,0.5,1.7,1.1,2.7,1.7
	c0.9,0.6,1.8,1.3,2.6,2.1c0.8,0.8,1.4,1.8,1.9,2.9c0.5,1.1,0.8,2.5,0.8,4c0,1.2-0.2,2.2-0.6,3.1c-0.4,0.9-0.9,1.6-1.5,2.2
	c-0.6,0.6-1.4,1.1-2.2,1.4c-0.8,0.3-1.7,0.5-2.6,0.5c-1.2,0-2.3-0.3-3.4-0.8c-1-0.5-1.9-1.3-2.7-2.3c-0.8-1-1.5-2.2-2-3.6
	c-0.5-1.4-0.9-3-1.1-4.7c0-0.3-0.1-0.4-0.3-0.5c-0.2-0.1-0.4-0.1-0.6-0.1c-0.2,0-0.4,0.1-0.6,0.3c-0.2,0.2-0.2,0.4-0.2,0.6
	c0.1,1.2,0.2,2.3,0.3,3.4c0.1,1.1,0.1,2.2,0.1,3.3c0,1.1,0,2.2-0.1,3.2c-0.1,1.1-0.2,2.1-0.3,3c0,0.2,0.1,0.3,0.2,0.4
	c0.1,0.1,0.3,0.2,0.5,0.2c0.2,0,0.4,0,0.5-0.1s0.3-0.3,0.4-0.5c0.2-0.6,0.4-1.1,0.7-1.3c0.3-0.3,0.5-0.4,0.8-0.4
	c0.2,0,0.4,0,0.6,0.1c0.2,0.1,0.3,0.2,0.5,0.3c1,0.7,2,1.2,3.2,1.6c1.2,0.4,2.2,0.5,3.2,0.5c1.4,0,2.9-0.2,4.3-0.6
	c1.4-0.4,2.7-1.1,3.9-2s2.1-2.2,2.8-3.7c0.7-1.5,1.1-3.3,1.1-5.5s-0.3-4-0.9-5.6c-0.6-1.5-1.4-2.9-2.4-4c-1-1.1-2.1-2.1-3.4-2.9
	c-1.3-0.8-2.5-1.6-3.8-2.4c-0.7-0.4-1.5-0.9-2.3-1.3c-0.8-0.4-1.5-1-2.2-1.5c-0.7-0.6-1.2-1.3-1.6-2.2c-0.4-0.9-0.6-1.9-0.6-3.2
	C570.5,124.3,570.7,123.4,571,122.6z"/>
<path class="st1" d="M621.5,54.8l-4,10.4 M642.6,67.7l-7.3,8.4 M658,87l-9.7,5.5 M665.6,106.2l-11,1.9 M665.7,135.1l-10.9-1.9
	 M647.4,152.7l9.6,5.5 M641,177.1l-7.2-8.5 M619.6,189.4l-3.9-10.4 M600.7,182.1l0.2,11.1 M570.9,189.5l3.6-10.5 M549.4,177.4l7-8.7
	 M542.7,152.9l-9.5,5.8 M525.3,138l10.9-2.3 M534.8,112.5l-11-1.6 M530.5,89.1l9.8,5.2 M555.6,74.7l-7.5-8.2 M572.5,64.4l-4.3-10.3
	 M595.4,38.1v23.1 M655.5,123.3l30,0.3 M592.1,201.1l0.6-18.3 M504,118.2l30,1 M598.6,42l-0.4,19.2 M606.2,46.4L604,61.8
	 M616.7,48.7l-4.4,15 M626.8,52.5l-6.4,14.2 M636.2,57.7l-8.4,13.2 M642.3,61.8l-10.1,11.9 M652.5,71.7L640.7,82 M658.9,80.3
	l-13.1,8.6 M664.1,89.7L650,96.4 M667.9,99.8l-14.9,4.6 M670.3,110.3l-15.4,2.4 M671.2,121.1l-15.6,0.2 M670.5,131.8l-15.5-2
	 M668.3,142.4l-15.1-4.1 M664.7,152.5l-14.3-6.2 M645.9,156.2l13.3,8.2 M639.4,162.9l12,10 M645.8,178.5l-10.5-11.6 M637.3,185.1
	l-8.8-12.9 M628,190.4l-6.8-14 M618,194.4l-4.8-14.9 M604.8,181.5l2.7,15.4 M596.8,197.9l-0.5-15.6 M586,197.4l1.7-15.5
	 M575.4,195.4l3.9-15.1 M565.2,191.9l6-14.4 M555.7,187l8-13.4 M546.8,180.8l9.8-12.2 M539,173.4l11.4-10.7 M532.3,165l12.8-8.9
	 M526.8,155.8l13.9-7.1 M522.7,145.8l14.8-5 M520,135.4l15.3-2.9 M518.8,124.7l15.6-0.7 M534.7,115.4l-15.5-1.5 M521,103.3l15.2,3.7
	 M524.4,93.1l14.5,5.8 M529.1,83.4l13.5,7.8 M535.2,74.5l12.3,9.6 M542.4,66.5l10.8,11.2 M550.7,59.7l9.1,12.7 M557.1,55l7.3,13.8
	 M571,49.1l5.2,14.7 M580.2,47l3.1,15.3 M590.9,45.6l0.9,15.6 M511.5,131.3l22.6-3.8 M549.8,80.6l-17.2-15.2 M638.5,79.2l16.2-15.9
	 M655.8,127.9L678,129 M631.2,170.9l18.5,22.6 M582.9,181.6l-3.2,18.8 M536.5,103.9l-22.4-5.9 M558.1,45.5l10.9,21 M652.5,101.3
	l21.9-8.3 M666,158.9l-17.2-8.3 M609.7,181l4.6,15.7 M548.2,188.6l12.7-16.1 M586,51.7l1,8.7 M609.7,52.8l-1.9,8.6 M624.3,68.1
	l4.6-7.5 M644.4,84.7l6.8-5.6 M661.4,97.6l-8.3,3 M665.4,117.6l-8.8,0.1 M654,141.6l8.4,2.8 M650.7,165.3l-7-5.3 M630.6,181.8
	l-4.8-7.3 M610.3,182.7l2.2,8.5 M588.9,193.2l0.8-8.8 M566.5,177.4l-3.6,8 M546.1,174.3l6-6.4 M530.1,149.1l7.8-4.1 M534.6,109.7
	L526,108 M536.5,83l7.6,4.4"/>
<path class="st0" d="M393.3,157.9c-1.4-0.1-2.6-0.3-3.6-0.4c-1-0.1-1.7-0.4-2.3-0.9c-0.6-0.4-1-1-1.2-1.9c-0.2-0.8-0.4-2-0.4-3.5
	V126c0-1.3,0.1-2.2,0.4-3c0.2-0.7,0.7-1.3,1.2-1.7c0.6-0.4,1.3-0.7,2.3-0.8c0.9-0.1,2.1-0.3,3.5-0.3c0.3,0,0.6-0.1,0.8-0.3
	c0.2-0.2,0.3-0.5,0.3-0.7s-0.1-0.5-0.3-0.7c-0.2-0.2-0.5-0.3-0.8-0.3c-0.5,0-1.2,0-2.2,0c-1,0-2.2,0-3.4,0c-1.3,0-2.6,0-3.9,0.1
	c-1.3,0,0.4,0.1-0.6,0.1c-1.1,0.1-2,1.1-2.7,1.3c-0.7,0.1-1.2,0.2-1.3,0.4l-8.3,13.3l-8-11.9V92.5h6.5c0,0,2.1,3.8,3.4,3
	c1.9-1.2-0.6-5.2-0.6-5.2s2.7-4.6,0.9-5.2c-2.6-0.9-3.7,3.7-3.7,3.7l-6.5,0.2l0.7-13.7c0,0,1.4,1.7,2.8,1.3s1.4-3.4,1.4-3.4h-8
	l0,0.1l-6.3,0.1c0,0,0,2.9,1.4,3.4c1.4,0.5,2.8-1.3,2.8-1.3l0.7,13.7l-6.5-0.2c0,0-1.2-4.7-3.7-3.7c-1.8,0.6,0.9,5.2,0.9,5.2
	s-2.4,4.1-0.6,5.2c1.3,0.8,3.4-3,3.4-3h6.5v26.8l-9.4,13l-7.7-12.4c-0.1-0.2-0.5-0.3-1.3-0.4c-0.7-0.1-1.7-1.2-2.7-1.3
	c-1.1-0.1,0.7-0.1-0.6-0.1c-1.3,0-2.6,0-3.9-0.1c-1.3,0-2.4,0-3.4,0c-1,0-1.7,0-2.2,0c-0.3,0-0.6,0.1-0.8,0.3
	c-0.2,0.2-0.3,0.4-0.3,0.7s0.1,0.5,0.3,0.7c0.2,0.2,0.5,0.3,0.8,0.3c1.4,0.1,2.6,0.2,3.5,0.3c0.9,0.1,1.7,0.4,2.3,0.8
	c0.6,0.4,1,1,1.2,1.7c0.2,0.7,0.4,1.7,0.4,3v25.3c0,1.5-0.1,2.7-0.4,3.5c-0.2,0.8-0.7,1.5-1.2,1.9c-0.6,0.4-1.3,0.7-2.3,0.9
	c-1,0.1-2.1,0.3-3.6,0.4c-0.3,0-0.6,0.2-0.7,0.4c-0.2,0.2-0.2,0.4-0.2,0.7c0,0.3,0.1,0.5,0.3,0.7s0.4,0.3,0.7,0.3
	c1.1,0,2.4-0.1,4.1-0.3c1.6-0.2,3.5-0.3,5.5-0.3c2,0,3.7,0.1,5.1,0.3c1.4,0.2,2.8,0.3,4,0.3c0.3,0,0.6-0.1,0.7-0.3
	c0.1-0.2,0.2-0.4,0.2-0.7s-0.1-0.5-0.2-0.7c-0.1-0.2-0.3-0.3-0.6-0.4c-1.3-0.1-2.3-0.3-3.3-0.4c-0.9-0.1-1.7-0.4-2.3-0.9
	c-0.6-0.4-1.1-1-1.4-1.9c-0.1-0.3-0.2-0.6-0.3-1l9.7-12.8l11.3,17.4c0.1,0.1,0.2,0.2,0.5,0.3c0,0,0.1,0,0.1,0v0c0.1,0,0.1,0,0.2,0
	c0.1,0,0.1,0,0.2,0v0c0,0,0.1,0,0.1,0c0.2-0.1,0.4-0.2,0.5-0.3l10.7-16.5l9.2,14.1c-0.2,0.2-0.4,0.4-0.6,0.5
	c-0.6,0.4-1.4,0.7-2.3,0.9c-0.9,0.1-2,0.3-3.3,0.4c-0.3,0-0.5,0.2-0.6,0.4c-0.1,0.2-0.2,0.4-0.2,0.7s0.1,0.5,0.2,0.7
	c0.1,0.2,0.4,0.3,0.7,0.3c1.2,0,2.5-0.1,4-0.3c1.4-0.2,3.2-0.3,5.1-0.3c2.1,0,3.9,0.1,5.5,0.3c1.6,0.2,3,0.3,4.1,0.3
	c0.3,0,0.5-0.1,0.7-0.3s0.3-0.4,0.3-0.7c0-0.3,0-0.5-0.2-0.7C393.9,158.1,393.7,158,393.3,157.9z M338.1,147.2v-19.4
	c0-0.3,0.2-0.5,0.5-0.4c0.4,0,0.6,0.2,0.7,0.4l6.1,9.4L338.1,147.2z M360.4,150.1c-0.1,0.1-0.2,0.2-0.3,0.2c-0.1,0-0.2-0.1-0.3-0.2
	l-8.4-13.5l8.9-11.8l8.1,12.4L360.4,150.1z M382.1,150.2l-8-11.9l6.8-10.5c0.1-0.2,0.3-0.3,0.7-0.4c0.4,0,0.5,0.1,0.5,0.4V150.2z"/>
<path class="st1" d="M424.9,146.3l-10.4-4 M412,167.4l-8.4-7.3 M392.7,182.8l-5.5-9.7 M373.5,190.4l-1.9-11 M344.6,190.5l1.9-10.9
	 M327,172.2l-5.5,9.6 M302.6,165.8l8.5-7.2 M290.3,144.4l10.4-3.9 M297.6,125.5l-11.1,0.2 M290.1,95.7l10.5,3.6 M302.3,74.2l8.7,7
	 M326.8,67.5L321,58 M341.7,50.1L344,61 M367.2,59.6l1.6-11 M390.6,55.3l-5.2,9.8 M405,80.5l8.2-7.5 M415.3,97.3l10.3-4.3
	 M441.6,120.3l-23.1,0 M356.4,180.4l-0.3,30 M278.6,116.9l18.3,0.6 M361.5,28.8l-1,30 M437.7,123.4l-19.2-0.4 M433.3,131l-15.5-2.2
	 M431,141.5l-15-4.4 M427.2,151.6l-14.2-6.4 M422,161l-13.2-8.4 M417.9,167.1L406,156.9 M408,177.3l-10.3-11.7 M399.4,183.7
	l-8.6-13.1 M389.9,188.9l-6.6-14.1 M379.9,192.8l-4.6-14.9 M369.4,195.1l-2.4-15.4 M358.6,196l-0.2-15.6 M347.9,195.3l2-15.5
	 M337.3,193.1l4.1-15.1 M327.2,189.5l6.2-14.3 M323.5,170.7l-8.2,13.3 M316.8,164.3l-10,12 M301.2,170.6l11.6-10.5 M294.6,162.1
	l12.9-8.8 M289.3,152.8l14-6.8 M285.3,142.8l14.9-4.8 M298.2,129.7l-15.4,2.7 M281.8,121.6l15.6-0.5 M282.3,110.8l15.5,1.7
	 M284.3,100.3l15.1,3.9 M287.8,90.1l14.4,6 M292.7,80.5l13.4,8 M298.9,71.7l12.2,9.8 M306.3,63.8l10.7,11.4 M314.7,57.1l8.9,12.8
	 M323.9,51.6l7.1,13.9 M333.9,47.5l5,14.8 M344.3,44.8l2.9,15.3 M355,43.6l0.7,15.6 M364.3,59.5l1.5-15.5 M376.4,45.9L372.7,61
	 M386.6,49.2l-5.8,14.5 M396.3,53.9l-7.8,13.5 M405.2,60l-9.6,12.3 M413.2,67.3l-11.2,10.8 M420,75.6l-12.7,9.1 M424.7,82l-13.8,7.3
	 M430.6,95.8l-14.7,5.2 M432.7,105l-15.3,3.1 M434.1,115.7l-15.6,0.9 M348.4,36.3l3.8,22.6 M399.1,74.6l15.2-17.2 M400.5,163.3
	l15.9,16.2 M351.8,180.6l-1.1,22.2 M308.8,156.1l-22.6,18.5 M298.1,107.7l-18.8-3.2 M375.8,61.4l5.9-22.4 M434.2,82.9l-21,10.9
	 M378.4,177.3l8.3,21.9 M320.8,190.8l8.3-17.2 M298.7,134.5l-15.7,4.6 M291.1,73.1l16.1,12.7 M428,110.8l-8.7,1 M426.9,134.5
	l-8.6-1.9 M411.6,149.1l7.5,4.6 M395,169.3l5.6,6.8 M382.1,186.3l-3-8.3 M362.1,190.2l-0.1-8.8 M338.1,178.8l-2.8,8.4 M314.4,175.5
	l5.3-7 M297.9,155.5l7.3-4.8 M297,135.1l-8.5,2.2 M286.5,113.7l8.8,0.8 M302.2,91.3l-8-3.6 M305.4,71l6.4,6 M330.6,55l4.1,7.8
	 M370,59.4l1.7-8.6 M396.7,61.3l-4.4,7.6"/>
<path class="st0" d="M107.2,106.3c0.1,0.2,0.1,0.4,0.1,0.6c0,0.2-0.1,0.4-0.2,0.6c-0.1,0.2-0.2,0.3-0.4,0.3c-1,0.1-1.9,0.2-2.5,0.4
	c-0.6,0.2-1.1,0.5-1.5,1c-0.3,0.4-0.6,1-0.7,1.8c-0.1,0.7-0.2,1.7-0.2,2.8v24.8c0,1.8-0.3,3.4-0.8,4.9c-0.6,1.5-1.3,2.8-2.3,3.9
	c-1,1.1-2.1,1.9-3.4,2.5c-1.3,0.6-2.7,0.9-4.3,0.9c-2.1,0-3.8-0.4-4.9-1.3c-1.2-0.8-1.8-2-1.8-3.4c0-0.3,0.1-0.6,0.2-0.9
	c0.1-0.3,0.3-0.6,0.5-0.9c0.2-0.3,0.5-0.5,0.8-0.7c0.3-0.2,0.7-0.3,1.2-0.3c0.8,0,1.4,0.2,1.9,0.7c0.5,0.5,0.7,1,0.7,1.6
	c0,0.3-0.1,0.6-0.4,0.9c-0.2,0.3-0.4,0.6-0.4,0.9c0,0.4,0.2,0.8,0.7,1c0.5,0.2,1,0.4,1.7,0.4c1,0,1.8-0.2,2.4-0.6
	c0.7-0.4,1.2-0.9,1.6-1.6c0.4-0.7,0.7-1.5,0.8-2.4s0.2-2,0.2-3.2v-27.4c0-1-0.1-1.9-0.2-2.6c-0.1-0.7-0.3-1.3-0.7-1.8
	c-0.3-0.5-0.8-0.8-1.4-1.1c-0.6-0.3-1.5-0.4-2.5-0.5c-0.2,0-0.4-0.1-0.5-0.3c-0.1-0.2-0.2-0.4-0.2-0.6c0-0.2,0.1-0.4,0.2-0.6
	c0.1-0.2,0.3-0.3,0.5-0.3c1.1,0,2.3,0.1,3.7,0.2c1.4,0.1,2.7,0.2,3.9,0.2c0.7,0,1.4,0,2-0.1c0.6,0,1.2-0.1,1.8-0.1
	c0.6,0,1.2-0.1,1.8-0.1c0.6,0,1.3-0.1,2-0.1C107,106,107.1,106.1,107.2,106.3z M179.8,132.4c-0.6-1.5-1.4-2.9-2.4-4
	c-1-1.1-2.1-2.1-3.4-2.9c-1.3-0.8-2.5-1.6-3.8-2.4c-0.7-0.4-1.5-0.9-2.3-1.3s-1.5-1-2.2-1.5c-0.7-0.6-1.2-1.3-1.6-2.2
	c-0.4-0.9-0.6-1.9-0.6-3.2c0-1,0.2-2,0.5-2.8c0.3-0.8,0.8-1.5,1.4-2c0.6-0.5,1.2-1,2-1.2c0.8-0.3,1.6-0.4,2.4-0.4
	c1.2,0,2.2,0.1,3.1,0.4c0.9,0.3,1.6,0.7,2.2,1.4c0.6,0.7,1.1,1.6,1.5,2.8c0.4,1.2,0.8,2.7,1.1,4.6c0,0.2,0.1,0.4,0.3,0.4
	c0.2,0.1,0.3,0.1,0.5,0.1c0.2,0,0.3-0.1,0.5-0.2c0.1-0.1,0.2-0.2,0.2-0.3c-0.1-1.2-0.2-2.3-0.3-3.1s-0.2-1.9-0.2-3
	c0-0.8,0-1.6,0.1-2.4c0-0.8,0.2-1.5,0.3-2.3c0-0.2,0-0.3-0.2-0.4c-0.1-0.1-0.3-0.1-0.5-0.2c-0.2,0-0.3,0-0.5,0.1
	c-0.2,0.1-0.3,0.2-0.4,0.3c-0.2,0.4-0.5,0.6-0.9,0.6c-0.3,0-0.5-0.1-0.8-0.2c-0.3-0.1-0.6-0.2-1.1-0.4c-0.8-0.3-1.5-0.6-2.2-0.7
	c-0.7-0.1-1.5-0.2-2.4-0.2c-1.5,0-2.9,0.2-4.3,0.6c-1.4,0.4-2.6,1-3.7,1.8c-1.1,0.8-1.9,1.9-2.6,3.3c-0.7,1.4-1,3.1-1,5.1
	c0,2,0.3,3.6,0.8,4.9c0.5,1.3,1.2,2.5,2.1,3.4c0.9,0.9,1.9,1.8,3,2.4c1.1,0.7,2.2,1.3,3.3,2c0.8,0.5,1.7,1.1,2.7,1.7
	c0.9,0.6,1.8,1.3,2.6,2.1c0.8,0.8,1.4,1.8,1.9,2.9c0.5,1.1,0.8,2.5,0.8,4c0,1.2-0.2,2.2-0.6,3.1c-0.4,0.9-0.9,1.6-1.5,2.2
	c-0.6,0.6-1.4,1.1-2.2,1.4s-1.7,0.5-2.6,0.5c-1.2,0-2.3-0.3-3.4-0.8c-1-0.5-1.9-1.3-2.7-2.3c-0.8-1-1.5-2.2-2-3.6
	c-0.5-1.4-0.9-3-1.1-4.7c0-0.3-0.1-0.4-0.3-0.5c-0.2-0.1-0.4-0.1-0.6-0.1c-0.2,0-0.4,0.1-0.6,0.3c-0.2,0.2-0.2,0.4-0.2,0.6
	c0.1,1.2,0.2,2.3,0.3,3.4c0.1,1.1,0.1,2.2,0.1,3.3c0,1.1,0,2.2-0.1,3.2c-0.1,1.1-0.2,2.1-0.3,3c0,0.2,0.1,0.3,0.2,0.4
	c0.1,0.1,0.3,0.2,0.5,0.2c0.2,0,0.4,0,0.5-0.1c0.2-0.1,0.3-0.3,0.4-0.5c0.2-0.6,0.4-1.1,0.7-1.3c0.3-0.3,0.5-0.4,0.8-0.4
	c0.2,0,0.4,0,0.6,0.1c0.2,0.1,0.3,0.2,0.5,0.3c1,0.7,2,1.2,3.2,1.6c1.2,0.4,2.2,0.5,3.2,0.5c1.4,0,2.9-0.2,4.3-0.6
	c1.4-0.4,2.7-1.1,3.9-2c1.2-0.9,2.1-2.2,2.8-3.7c0.7-1.5,1.1-3.3,1.1-5.5C180.7,135.8,180.4,133.9,179.8,132.4z M151.7,147.2
	c-1-0.1-1.8-0.3-2.5-0.5s-1.1-0.5-1.5-0.9c-0.4-0.4-0.6-1-0.7-1.8c-0.1-0.8-0.2-1.9-0.2-3.2V116c0-1.4,0.1-2.6,0.2-3.5
	c0.1-0.9,0.3-1.7,0.7-2.2c0.3-0.6,0.8-1,1.5-1.3c0.6-0.3,1.5-0.5,2.5-0.5c0.2,0,0.3-0.1,0.4-0.3c0.1-0.2,0.2-0.5,0.2-0.7
	c0-0.3,0-0.5-0.1-0.7c-0.1-0.2-0.2-0.3-0.4-0.3c-0.7,0-1.4,0-2,0.1c-0.6,0-1.2,0.1-1.8,0.1c-0.6,0-1.2,0.1-1.8,0.1
	c-0.6,0-1.3,0.1-2,0.1c-1.2,0-2.5-0.1-3.9-0.2c-1.4-0.1-2.6-0.2-3.7-0.2c-0.2,0-0.4,0.1-0.5,0.3c-0.1,0.2-0.2,0.4-0.2,0.7
	s0,0.5,0.2,0.7c0.1,0.2,0.3,0.3,0.5,0.3c1,0.1,1.9,0.3,2.5,0.6c0.6,0.3,1.1,0.8,1.4,1.4c0.3,0.6,0.6,1.3,0.7,2.3
	c0.1,0.9,0.2,2,0.2,3.3v8.6c0,0.5-0.1,0.8-0.3,1c-0.2,0.2-0.5,0.3-0.9,0.3h-5.3V87.8h6.5c0,0,2.1,3.8,3.4,3c1.9-1.2-0.6-5.2-0.6-5.2
	s2.7-4.6,0.9-5.2c-2.6-0.9-3.7,3.7-3.7,3.7l-6.5,0.2l0.7-13.7c0,0,1.4,1.7,2.8,1.3s1.4-3.4,1.4-3.4h-8l0,0.1l-6.3,0.1
	c0,0,0,2.9,1.4,3.4c1.4,0.5,2.8-1.3,2.8-1.3l0.7,13.7l-6.5-0.2c0,0-1.2-4.7-3.7-3.7c-1.8,0.6,0.9,5.2,0.9,5.2s-2.4,4.1-0.6,5.2
	c1.3,0.8,3.4-3,3.4-3h6.5v38h-5.2c-0.7,0-1.1-0.4-1.1-1.3V116c0-1.4,0-2.6,0.2-3.5c0.1-0.9,0.3-1.7,0.7-2.2c0.3-0.6,0.8-1,1.5-1.3
	c0.6-0.3,1.5-0.5,2.5-0.5c0.2,0,0.3-0.1,0.4-0.3c0.1-0.2,0.2-0.5,0.2-0.7c0-0.3,0-0.5-0.1-0.7c-0.1-0.2-0.2-0.3-0.4-0.3
	c-0.7,0-1.4,0-2,0.1c-0.6,0-1.2,0.1-1.8,0.1c-0.6,0-1.2,0.1-1.8,0.1c-0.6,0-1.3,0.1-2,0.1c-1.2,0-2.5-0.1-3.9-0.2
	c-1.4-0.1-2.6-0.2-3.7-0.2c-0.2,0-0.4,0.1-0.5,0.3c-0.1,0.2-0.2,0.4-0.2,0.7s0.1,0.5,0.2,0.7c0.1,0.2,0.3,0.3,0.5,0.3
	c1,0.1,1.9,0.3,2.5,0.6c0.6,0.3,1.1,0.8,1.4,1.4c0.3,0.6,0.6,1.3,0.7,2.3c0.1,0.9,0.2,2,0.2,3.3v24.7c0,1.4-0.1,2.5-0.2,3.2
	c-0.1,0.8-0.4,1.4-0.7,1.8s-0.8,0.8-1.5,0.9s-1.5,0.3-2.5,0.5c-0.2,0-0.4,0.2-0.5,0.4c-0.1,0.2-0.2,0.4-0.2,0.7s0.1,0.5,0.2,0.7
	s0.3,0.3,0.5,0.3c1.1,0,2.3-0.1,3.7-0.3s2.7-0.3,4-0.3c1.2,0,2.4,0.1,3.7,0.3s2.5,0.3,3.9,0.3c0.2,0,0.4-0.1,0.5-0.3
	c0.1-0.2,0.2-0.4,0.2-0.7s-0.1-0.5-0.2-0.7c-0.1-0.2-0.3-0.3-0.5-0.4c-1-0.1-1.8-0.3-2.5-0.5c-0.6-0.2-1.1-0.5-1.5-0.9
	c-0.4-0.4-0.6-1-0.7-1.8c-0.1-0.8-0.2-1.9-0.2-3.2v-10.8c0-0.8,0.4-1.3,1.1-1.3h15.1c0.7,0,1.1,0.5,1.1,1.6v10.5
	c0,1.4-0.1,2.5-0.2,3.2c-0.1,0.8-0.4,1.4-0.7,1.8c-0.4,0.4-0.8,0.8-1.5,0.9c-0.6,0.2-1.5,0.3-2.5,0.5c-0.2,0-0.4,0.2-0.5,0.4
	c-0.1,0.2-0.2,0.4-0.2,0.7s0.1,0.5,0.2,0.7c0.1,0.2,0.3,0.3,0.5,0.3c1.1,0,2.3-0.1,3.7-0.3c1.4-0.2,2.7-0.3,4-0.3
	c1.2,0,2.4,0.1,3.7,0.3c1.2,0.2,2.5,0.3,3.9,0.3c0.2,0,0.4-0.1,0.5-0.3c0.1-0.2,0.2-0.4,0.2-0.7s-0.1-0.5-0.2-0.7
	C152,147.4,151.9,147.3,151.7,147.2z"/>
<path class="st1" d="M160.9,184l-4.5-10.2 M136.9,189.8l-0.8-11.1 M112.3,187.1l3-10.7 M93.4,178.9l6.4-9.1 M72.9,158.5l9.1-6.4
	 M73.4,133.1L62.7,136 M60.7,111.4l11.1,0.9 M67.2,87.5l10.1,4.6 M85.6,79.3l-8-7.7 M101.5,53l4.9,10 M125.3,46.3l1.2,11.1
	 M147.3,59l2.6-10.8 M170.2,57.2l-6.1,9.3 M181.4,82l8.9-6.7 M201,95.4l-10.6,3.3 M193.5,123.4l11.1,0.5 M188.9,142.6l10.3,4.2
	 M191.2,177.4l-16.3-16.3 M88.4,159.6l-21.5,21 M78.3,59.8l12.6,13.4 M199.2,56.1l-21.9,20.5 M186.2,176.9L172.9,163 M177.8,179.2
	l-9.4-12.5 M168.7,185l-7.5-13.7 M158.9,189.4l-5.5-14.6 M148.5,192.4l-3.4-15.2 M141.3,193.8l-1.2-15.6 M127.1,194l1-15.6
	 M116.4,192.5l3.2-15.3 M106.1,189.5l5.3-14.7 M96.3,185.1l7.3-13.8 M87.2,179.3l9.2-12.6 M79,172.3l10.9-11.2 M71.8,164.2l12.3-9.6
	 M65.9,155.2l13.6-7.7 M61.3,145.5l14.5-5.7 M72,129.6l-15.2,3.6 M71.9,120.3l-15.5,1.5 M56.3,113.8l15.6,0.8 M57.6,103.1l15.3,2.9
	 M60.5,92.7l14.8,5.1 M64.8,82.9L78.7,90 M83.1,82.7l-12.8-9 M77.2,65.4l11.4,10.7 M85.2,58.1l9.7,12.2 M94.1,52.1l7.9,13.5
	 M103.8,47.3l5.9,14.4 M114,44l3.9,15.1 M124.6,42.2l1.7,15.5 M135.4,41.8l-0.5,15.6 M146.1,43l-2.7,15.4 M156.5,45.7l-4.9,14.8
	 M166.5,49.8l-6.9,14 M175.7,55.3l-8.8,12.9 M184.1,62l-10.5,11.5 M179.5,79.8l12.1-9.9 M197.7,78.7l-13.3,8.1 M202.6,88.3
	l-14.3,6.2 M206,98.5l-15.1,4.1 M208.1,109.1l-15.5,1.9 M208.6,119.8l-15.6-0.3 M207.5,130.6l-15.4-2.5 M206.3,138.4l-14.9-4.6
	 M200.7,152.4l-14.1-6.7 M195.7,160.4l-13-8.6 M189.1,168.9l-11.7-10.4 M184.6,52.1l-13.3,18.7 M193.4,115.1l22.9-1.4 M131.7,178.8
	l-0.2,22.7 M85.1,156.6l-16.5,14.9 M72,108.9l-29-2.9 M98.6,67.1L87.5,51.5 M186.3,89.3l20.1-11.7 M212.4,145.8l-22.5-7.2
	 M106.2,173.1l-9.6,21.3 M55.9,141.9l18-6.3 M80,86.5l-14.4-7.8 M118.2,37.7l2.4,20.4 M188.2,161.1l-6.9-5.4 M170.7,177.1l-4.7-7.4
	 M149.6,176.6l2.1,8.6 M123.6,179.1l-0.9,8.8 M102.4,182l3.7-8 M85.5,170.7l6.1-6.3 M76.6,145.7l-7.9,4 M62.1,126.5l8.7-1.2
	 M64.7,100.7l8.6,1.8 M78.4,85.7l-7.6-4.5 M86.2,63.1l5.7,6.7 M113.1,58.4l-3.1-8.2 M129.8,46.3l0.3,8.8 M158.9,52.7l-2.6,8.4
	 M183.6,83.8l7.3-4.9 M201.1,104l-8.5,2.3"/>
</svg>
