<?xml version="1.0" encoding="utf-8"?>
<!-- Generator: Adobe Illustrator 23.0.2, SVG Export Plug-In . SVG Version: 6.00 Build 0)  -->
<svg version="1.1" id="Capa_1" xmlns="http://www.w3.org/2000/svg" xmlns:xlink="http://www.w3.org/1999/xlink" x="0px" y="0px"
	 viewBox="0 0 1366 1366" style="enable-background:new 0 0 1366 1366;" xml:space="preserve">
<style type="text/css">
	.st0{fill:none;
	stroke:Transparent;
	stroke-width:2;
	stroke-dasharray: 230;
	stroke-dashoffset: 0;
	stroke-miterlimit:10;
		-webkit-animation: animacion 5s forwards 5s;
		-moz-animation: animacion 5s forwards 5s;
		-o-animation: animacion 5s forwards 5s;
		animation: animacion 5s forwards 5s;
	
	}
	.st1{fill:transparent;
	stroke:transparent;
	stroke-width:2;
			-webkit-animation: shop 3s forwards 3s;
			-moz-animation: shop 3s forwards 3s;
			-o-animation: shop 3s forwards 3s;
			animation: shop 3s forwards 3s;
	}

	.st2{fill:transparent;
			-webkit-animation: cordibus 5s forwards 1s;
			-moz-animation: cordibus 5s forwards 1s;
			-o-animation: cordibus 5s forwards 1s;
			animation: cordibus 5s forwards 1s;
	}

	@-webkit-keyframes animacion {
			0% {
				stroke-dashoffset: 230;
			}
			90% {
				stroke: #fff;
			}

			100% {
				stroke-dashoffset: 0;
				stroke: #ffffbf;
			}
		}

		@-keyframes animacion {
			0% {
				stroke-dashoffset: 230;
			}
			90% {
				stroke: #fff;
			}

			100% {
				stroke-dashoffset: 0;
				stroke: #ffffbf;
			}
		}

		@-webkit-keyframes cordibus {
			from {
				fill: transparent;
			}

			to {
				fill: #eddc8f;
			}
		}

		@-keyframes cordibus {
			from {
				fill: transparent;
			}

			to {
				fill: #eddc8f;
			}
		}

		@-webkit-keyframes shop {
			from {
				stroke: transparent;
			}

			to {
				
				fill: rgba(255, 227, 191, 0.5);
			}
		}

		@-keyframes shop {
			from {
				stroke: transparent;
			}

			to {
				
				fill: rgba(255, 227, 191, 0.5);
			}
		}
</style>
<g id="rayos">
	<path class="st0" d="M666.8,43.6l-0.5,229.5 M738.8,114.8l-21.1,161.6 M768.3,286.3l41.8-157.5 M879,151.8l-61.8,150.8
		 M944.3,183.6l-80.8,141.5 M1004.9,223.6l-98.5,129.9 M1059.9,271.1L945.5,387.2 M1108.3,325.3L979.8,425.6 M1149.2,385.3
		l-140.4,82.8 M1032.2,514.1l149.9-64 M1206.3,518.6l-156.9,44.1 M1221.4,589.7l-161.3,23.4 M1227.2,662.1l-163,2.3 M1061.7,715.9
		l161.9,18.8 M1210.6,806.2l-158.1-39.6 M1188.5,875.4l-151.7-59.7 M1157.7,941.1L1015,862.3 M1118.6,1002.4l-131.3-96.6
		 M1071.9,1058L954.2,945.2 M1018.3,1107.1l-102.1-127 M958.9,1148.9l-84.8-139.2 M894.6,1182.7l-66.1-149 M826.4,1207.9
		l-46.3-156.3 M755.6,1224l-25.7-161 M683.3,1230.9l-4.7-162.9 M610.7,1228.3l16.5-162.2 M576.3,1057.7L539,1216.4 M469.5,1195.2
		l57.5-152.5 M403.3,1165.3l76.8-143.8 M436.2,994.4l-94.7,132.7 M285.2,1081.2l111.1-119.3 M235.3,1028.4l125.6-103.9 M192.7,969.6
		l138-86.8 M158,905.7l148-68.2 M131.8,837.9l155.6-48.5 M275.3,739.3l-160.6,28 M106.8,695.1l162.9-7 M108.3,622.5l162.4,14.1
		 M278.5,585.7l-159.2-35 M292.7,536.2l-153.3-55.3 M168.4,414.2l144.9,74.7 M205.7,351.9l134,92.8 M371.7,404.3L250.8,294.9
		 M302.9,244.3l105.7,124.1 M361.1,200.8l88.8,136.7 M424.4,165.2l70.3,147 M491.8,138.1L542.6,293 M562.2,120l30.3,160.2
		 M637.8,174.6l5.8,99.2 M698.5,174.8l-6.3,99.1 M740.3,280l18.4-97.6 M817.5,197.2l-30.1,94.7 M874.1,219.1l-41.4,90.3
		 M927.6,247.7l-52.1,84.6 M977.2,282.7l-62.1,77.6 M1022.2,323.4l-71.1,69.4 M1061.8,369.3l-79,60.3 M1095.6,419.7l-85.7,50.2
		 M1123,473.8l-91.2,39.4 M1143.6,530.9l-95.3,27.9 M1059,606.2l98-16.1 M1163.2,650.4l-99.3,4 M1162,711.1l-99-8.1 M1153.3,771.2
		l-97.3-20.1 M1137.5,829.7l-94.1-31.8 M1114.5,885.9l-89.5-43 M1001.3,885.3l83.6,53.6 M1049.1,987.9l-76.5-63.4 M939.5,959.8
		l68.2,72.3 M961,1071l-58.8-80 M910,1103.8l-48.6-86.6 M855.4,1130.3l-37.7-91.9 M797.9,1149.8l-26.2-95.8 M738.6,1162.2
		l-14.4-98.3 M678.1,1167.3l-2.3-99.3 M617.5,1165l9.9-98.9 M557.6,1155.3l21.8-96.9 M499.3,1138.4l33.5-93.5 M443.5,1114.5
		l44.6-88.8 M391.1,1083.9l55.1-82.7 M342.8,1047.3l64.8-75.3 M299.3,1005l73.5-66.9 M261.2,957.7l81.1-57.4 M229.3,906.1l87.5-47.1
		 M203.8,851l92.6-36.1 M185.3,793.2l96.3-24.5 M272.5,721l-98.5,12.6 M169.9,673.1l99.3-0.5 M173.3,612.5l98.7,11.6 M280.6,576.3
		l-96.5-23.6 M295,530l-92.9-35.1 M314.9,485.7L227,439.5 M258.4,387.6l81.7,56.6 M296,339.9l74.2,66.1 M339,297.2l65.5,74.7
		 M442.9,342.1L387,260 M439.1,229l45.5,88.3 M529.1,297.7l-34.4-93.2 M552.8,187l22.8,96.7 M612.5,176.7l10.9,98.8 M1024.9,155.9
		L893.4,344 M1254.7,452.7L1039.3,532 M1273.8,827.5l-222.1-57.9 M1075.5,1146.1L926.2,971.7 M730.7,1294.3L707.8,1066 M363,1219.1
		l111.6-200.5 M104.1,947.3l206.2-100.8 M46.9,576.4l226.8,35 M211.8,239.2L378,397.5 M539.7,56.6l46,224.8"/>
</g>
<path id="shop" class="st1" d="M617.3,727.1c1.5-3,2.2-5.6,2.2-7.9c0-3.5-1-6.1-3-7.8c-2-1.7-4.5-2.5-7.6-2.5
	c-6.5,0-12.6,1.1-18.4,3.3c-5.8,2.2-11.1,5-15.9,8.4c-4.9,3.4-9.2,7.2-13.1,11.5c-3.8,4.2-7.1,8.4-9.8,12.5
	c-2.7,4.1-4.7,7.9-6.2,11.4c-1.4,3.5-2.2,6.2-2.2,8.2c0,2.6,1,4.8,3,6.4c2,1.6,4.6,3,7.9,4c3.3,1.1,7,1.9,11.1,2.4
	c4.1,0.6,8.3,1.1,12.6,1.6c4.3,0.5,8.5,1,12.6,1.6c4,0.6,7.7,1.4,10.8,2.5c3.2,1.1,5.7,2.4,7.7,4.2c1.9,1.7,2.9,4,2.9,6.8
	c0,2.8-0.8,5.6-2.4,8.4c-1.6,2.9-3.8,5.6-6.5,8.2c-2.7,2.6-5.8,5.1-9.3,7.5c-3.5,2.3-7.1,4.4-10.8,6.1c-3.7,1.7-7.4,3.1-11.1,4.1
	s-7.1,1.5-10.1,1.5c-3.7,0-6.7-0.8-9-2.5c-2.2-1.7-4-3.6-5.2-5.7c-1.2-2.2-2-4.3-2.4-6.3c-0.4-2-0.6-3.5-0.6-4.3
	c0-1.3,0.4-2.3,1.1-3c0.7-0.7,1.6-1,2.5-1c1,0,1.8,0.3,2.6,1c0.7,0.7,1.1,1.6,1.1,3c0,0.6,0.1,1.2,0.2,1.9c0.1,0.7,0.4,1.3,0.9,1.8
	c0.5,0.6,1.2,1,2.2,1.4c1,0.4,2.4,0.5,4.1,0.5c1.6,0,3.6-0.4,6.2-1.3c2.6-0.9,5.3-2,8.3-3.4c2.9-1.4,5.9-3,8.9-4.7
	c3-1.8,5.7-3.5,8.1-5.3c2.4-1.7,4.4-3.4,5.9-5c1.5-1.6,2.3-3,2.3-4c0-0.4-0.5-0.8-1.4-1.2c-1-0.4-2.3-0.7-4-0.9
	c-1.7-0.3-3.7-0.5-6-0.8c-2.3-0.2-4.8-0.5-7.5-0.7c-3.7-0.4-7.6-0.8-11.8-1.2c-4.1-0.4-8.2-1.1-12.3-1.9c-4-0.8-7.9-1.9-11.6-3.2
	c-3.7-1.3-6.9-3-9.7-5c-2.8-2-5-4.5-6.7-7.5c-1.6-2.9-2.5-6.4-2.5-10.5c0-3.4,1.1-7.2,3.2-11.4c2.2-4.2,5.1-8.4,9-12.6
	c3.8-4.2,8.3-8.3,13.5-12.3c5.2-4,10.8-7.5,16.9-10.6c6.1-3.1,12.4-5.6,19.1-7.4c6.7-1.9,13.3-2.8,20.1-2.8c3.5,0,6.8,0.5,9.9,1.4
	c3.1,0.9,5.7,2.3,8,4.2c2.2,1.9,4,4.3,5.3,7.2c1.3,2.9,1.9,6.4,1.9,10.4c0,2.7-0.8,5.8-2.2,9.3c-1.5,3.5-3.5,7.1-5.9,10.8
	c-2.5,3.7-5.2,7.3-8.3,10.8c-3.1,3.5-6.1,6.7-9.2,9.5c-3.1,2.8-6.1,5-8.9,6.8c-2.9,1.7-5.3,2.6-7.2,2.6c-0.7,0-1.6-0.4-2.7-1.2
	c-1.1-0.8-2.1-1.8-3.1-2.9c-1-1.1-1.8-2.3-2.5-3.6c-0.7-1.2-1-2.3-1-3.2c0-1,0.3-1.8,0.9-2.4c0.6-0.6,1.5-0.9,2.7-0.9
	c0.8,0,2.3-0.7,4.3-2.2c2-1.4,4.3-3.3,6.9-5.7c2.6-2.3,5.3-5,8.1-8c2.8-3,5.3-6,7.6-9.1C613.9,733.1,615.8,730.1,617.3,727.1z
	 M791.4,767.3c-0.6,1.2-1.6,3-3,5.4c-1.4,2.4-3.2,5-5.5,7.9c-2.2,2.9-4.9,5.8-7.9,8.8c-3,3-6.4,5.7-10.1,8.2
	c-3.7,2.5-7.8,4.5-12.2,6c-4.4,1.6-9.1,2.3-14.2,2.3c-2.2,0-4.1-0.3-5.8-0.9c-1.6-0.6-3-1.4-4.1-2.4c-1.7,2.9-3.2,5.5-4.5,8
	c-1.3,2.5-2.4,4.6-3.5,6.3v-0.2c-1.9,4.1-3.5,7.8-4.6,10.8c-1.2,3.1-1.8,5.3-1.8,6.7l0.2,0.7c0.1,0.2,0.1,0.4,0.1,0.6
	c0,0.2,0.1,0.4,0.1,0.6l-0.1-0.1c0.2,0.7,0.3,1.4,0.5,2c0.1,0.6,0.1,1.1,0,1.6c-0.1,0.5-0.4,0.8-0.9,1.1c-0.5,0.3-1.2,0.4-2.1,0.4
	c-1.2,0-2.4-0.3-3.6-0.9c-1.2-0.6-2.3-1.4-3.3-2.4c-1-1.1-1.8-2.3-2.5-3.8c-0.6-1.5-0.9-3.1-0.9-4.9c0-1.5,0.4-3.6,1.3-6.3
	c0.8-2.7,2-5.7,3.4-9c1.4-3.4,3-7,4.8-10.9c1.8-3.9,3.6-7.8,5.4-11.8v0.1c0.5-1.2,1.1-2.3,1.6-3.5c-1.4,1.1-3,2-4.6,2.9
	c-2.2,1.2-4.6,1.9-7.1,2.3c-2.7,3.8-5.8,6.9-9.2,9.3c-3.4,2.4-7,3.6-10.6,3.6c-2,0-3.9-0.4-5.8-1.2c-1.9-0.8-3.6-1.9-5-3.5
	c-1.5-1.5-2.7-3.4-3.6-5.7c-0.7-1.8-1.1-3.8-1.3-6.1c-2.2,3-4.4,5.7-6.6,8.1c-2.2,2.5-4.5,4.5-6.7,6c-2.2,1.6-4.1,2.3-5.9,2.3
	c-2.9,0-5.3-1.1-7.2-3.3c-1.9-2.2-2.9-5.1-2.9-8.9c0-1.3,0.3-2.8,0.8-4.7c0.5-1.9,1.2-3.9,2-6.1c0.8-2.2,1.8-4.5,2.8-6.8
	s2.1-4.6,3.1-6.9c-2,2.3-4,4.7-6.2,7.3c-2.1,2.6-4.2,5.2-6.1,7.7c-1.9,2.5-3.7,4.9-5.2,7.2c-1.6,2.2-2.7,4.2-3.4,5.8
	c-0.2,0.7-0.3,1.3-0.3,1.7l0.2,0.7c0.1,0.2,0.1,0.4,0.1,0.6c0,0.2,0.1,0.5,0.1,0.6l-0.1-0.1c0.2,0.7,0.3,1.4,0.5,2
	c0.1,0.6,0.1,1.1,0,1.6c-0.1,0.5-0.4,0.8-0.9,1.1c-0.5,0.3-1.2,0.4-2.1,0.4c-1.2,0-2.4-0.3-3.6-0.9c-1.2-0.6-2.3-1.4-3.3-2.4
	c-1-1-1.8-2.3-2.5-3.8c-0.7-1.5-1-3.1-1-4.9c0-1.5,0.4-3.5,1.2-5.9c0.8-2.5,1.8-5.2,3.1-8.3c1.3-3.1,2.8-6.3,4.4-9.8
	c1.7-3.5,3.3-7,5.1-10.6c1.7-3.5,3.3-6.9,5-10.4c1.6-3.4,3.1-6.6,4.3-9.5c1.3-2.9,2.3-5.6,3.1-7.9c0.8-2.3,1.2-4.1,1.2-5.4
	c0-1,0.7-1.4,2-1.3s2.8,0.6,4.5,1.4c1.6,0.8,3.1,1.8,4.5,3.1c1.4,1.2,2,2.5,2,3.7c0,1.6-0.4,3.6-1.3,6.2c-0.9,2.6-2,5.4-3.4,8.5
	c-1.4,3.2-3,6.5-4.8,10.1c-1.8,3.6-3.6,7.2-5.4,10.9l-0.7,1.3v0.1c1.8-2.2,3.6-4.4,5.5-6.5c1.9-2.1,3.6-4.1,5.2-5.8s3.1-3.1,4.4-4.2
	c1.3-1.1,2.3-1.7,2.9-1.8c0.7-0.1,1.6,0.2,2.6,0.8c1,0.6,2,1.4,3,2.3c1,0.9,1.8,2,2.5,3.2c0.7,1.2,1,2.4,1,3.6
	c0,0.9-0.5,2.4-1.5,4.6c-1,2.2-2.2,4.8-3.6,7.7c-1,2.1-2.1,4.3-3.2,6.6c-1.1,2.3-2.1,4.5-3,6.7c-0.9,2.2-1.7,4.1-2.2,5.9
	c-0.6,1.8-0.9,3.2-0.9,4.3v0.6c0,0.1,0,0.2,0.1,0.2c0.9,0,2.1-0.7,3.6-2.1c1.5-1.4,3.1-3.2,4.8-5.3c1.7-2.2,3.5-4.5,5.4-7.2
	c1.8-2.6,3.5-5.2,5.1-7.7c1.1-1.7,2.1-3.3,3-4.8c0.2-0.4,0.4-0.7,0.6-1.1c0.4-0.7,0.8-1.3,1.2-1.9c0.8-1.4,1.4-2.5,1.8-3.3
	c0.2-0.4,0.6-0.7,1.2-0.7c0.1-0.1,0.2-0.2,0.3-0.3c1.5-1.6,2.7-2.4,3.6-2.4c0.6,0,1.3,0.1,2,0.2c0.7,0.1,1.4,0.3,2.1,0.4
	c1.1-1.4,2.2-2.8,3.5-4c1.2-1.3,2.5-2.4,4-3.3c1.4-0.9,2.9-1.7,4.4-2.2c1.5-0.6,3-0.9,4.6-0.9c2.3,0,4.2,0.3,5.6,0.8
	c1.5,0.5,2.6,1.2,3.5,2.2c0.9,0.9,1.5,2,1.8,3.3c0.3,1.3,0.5,2.7,0.5,4.2c0,7.9-1.8,15.4-5.3,22.6c2.2-1.2,4.2-2.7,6.2-4.6
	c1.9-1.9,3.7-3.7,5.3-5.7c1.6-1.9,2.9-3.7,4-5.5c0.2-0.4,0.5-0.8,0.7-1.1c1.1-2.7,2.1-5.2,2.8-7.4c0.8-2.5,1.3-4.4,1.3-5.7
	c0-1,0.7-1.4,2-1.3s2.8,0.5,4.5,1.3c1.6,0.8,3.2,1.8,4.5,3.1c1.3,1.3,2,2.5,2,3.8c0,1.3-0.4,3.2-1.1,5.6c1.5-2.2,3-4.2,4.4-6.1
	c1.4-1.9,2.8-3.5,4.2-4.9c1.3-1.4,2.6-2.5,3.7-3.3c1.1-0.8,2.1-1.2,3-1.2c2,0,3.9,0.2,5.5,0.5c1.6,0.3,3,0.9,4.1,1.9
	c1.1,1,1.9,2.4,2.5,4.3c0.6,1.9,0.9,4.4,0.9,7.5c0,1.5-0.2,3.3-0.6,5.3c-0.4,2-1,4.2-1.8,6.6c-0.8,2.3-1.8,4.7-3.1,7.1
	c-1.2,2.4-2.6,4.7-4.2,6.9c3.4-2.2,6.5-4.6,9.3-7.3c2.8-2.7,5.2-5.4,7.2-8c2.1-2.6,3.7-4.9,5-7c1.3-2.1,2.1-3.6,2.6-4.6v-0.1
	c0.6-1.1,1.3-1.8,2.2-2.1c0.8-0.3,1.6-0.4,2.2-0.1c0.7,0.3,1.1,0.8,1.4,1.6C792.1,765.2,792,766.1,791.4,767.3z M698.1,792.7
	c-2.3-0.6-4.4-1.5-6.4-2.7c-2-1.2-3.7-2.7-5.2-4.3c-0.8,1.9-1.4,3.7-1.9,5.4s-0.8,3.3-0.8,4.6c0,1,0.2,1.8,0.7,2.4
	c0.5,0.6,1.3,0.9,2.5,0.9c2.1,0,4.1-0.6,5.9-1.7C694.7,796.2,696.5,794.7,698.1,792.7z M709.8,763.1c0-2.4-0.3-3.6-0.9-3.6
	c-0.6,0-1.5,0.8-2.8,2.3c-1.3,1.5-2.5,3.4-3.8,5.7c-1.3,2.3-2.4,4.7-3.4,7.3c-1,2.6-1.4,4.9-1.4,7.1c0,1.4,0.3,2.6,1,3.5
	c0.7,1,1.9,1.6,3.6,1.8c1.2-2,2.3-4.2,3.2-6.4c1-2.2,1.8-4.4,2.4-6.5c0.7-2.1,1.2-4.2,1.5-6.1C709.6,766.3,709.8,764.6,709.8,763.1z
	 M758,760c-0.7,0.1-1.5,0.7-2.7,1.8c-1.1,1.1-2.4,2.5-3.8,4.4c-1.4,1.8-2.9,3.9-4.5,6.3c-1.6,2.4-3.3,5-5,7.7
	c-1.7,2.7-3.5,5.6-5.2,8.5c-1.7,2.9-3.4,5.8-5,8.6c0.6,1.6,1.5,2.4,2.7,2.4c1.9,0,3.7-0.8,5.6-2.3c1.9-1.5,3.7-3.5,5.4-6
	c1.8-2.5,3.4-5.2,4.9-8.2c1.5-3,2.8-6,4-8.9c1.1-2.9,2-5.7,2.7-8.2C757.7,763.6,758,761.6,758,760L758,760z"/>
<path id="cordibus" class="st2" d="M373.8,622.3c7,0,16.2,1.4,27.6,4.3v22.5h-10.7l-0.1-1.6c0-13-5.7-19.5-17.1-19.5
	c-8.3,0-14.9,3.8-19.8,11.3c-4.9,7.5-7.3,17.7-7.3,30.6c0,13.2,2.9,23.5,8.7,31.1c5.8,7.6,13.7,11.4,23.6,11.4
	c8.6,0,16.1-1.4,22.7-4.3v7.5c-9,3.6-17.9,5.4-26.5,5.4c-13.8,0-25-4.6-33.5-13.8c-8.6-9.2-12.9-21.2-12.9-36s4.1-26.6,12.4-35.5
	C349.1,626.8,360.1,622.3,373.8,622.3z M488.1,635.5c8,8.8,12,20.8,12,36.1c0,15.3-4,27.3-12.1,36.1c-8.1,8.8-19,13.3-32.9,13.3
	s-24.9-4.4-32.9-13.3c-8.1-8.8-12.1-20.9-12.1-36.1c0-15.3,4-27.3,12.1-36.1c8.1-8.8,19-13.2,32.9-13.2
	C469.1,622.3,480.1,626.7,488.1,635.5z M482,671.7c0-12.6-2.6-23.1-7.7-31.5c-5.1-8.4-11.5-12.6-19.2-12.6c-7.7,0-14,4.2-19.2,12.6
	c-5.1,8.4-7.7,18.9-7.7,31.5c0,12.7,2.5,23.2,7.6,31.6c5.1,8.3,11.5,12.5,19.2,12.5s14.1-4.2,19.2-12.5
	C479.4,694.9,482,684.4,482,671.7z M536.3,642.2v-17.7h-33.2v5.4l1.7,0.1c7,0.5,11.2,1.5,12.5,3c1.3,1.5,2,6.2,2,14v49.4
	c0,7.8-0.7,12.5-2,14c-1.3,1.5-5.5,2.5-12.5,3l-1.7,0.1v5.4h51.5v-5.4l-3.7-0.1c-7-0.4-11.1-1.4-12.5-3c-1.4-1.6-2-6.3-2-14.1v-46.2
	c5.5-9.2,12.5-13.8,21.1-13.8c2.1,0,3.5,0.5,4,1.5c0.5,1,1.1,4.2,1.7,9.6l0.1,1.6h9.6v-25.8c-2.1-0.6-4.1-1-5.8-1
	C554.3,622.3,544.1,628.9,536.3,642.2z M693.9,607.4H711v-17.1h-17.1V607.4z M725.4,713.4l1.6,0.1v5.4h-46.8h-2.5H647v-17.7
	c-4.2,6.6-9,11.5-14.6,14.9c-5.5,3.3-11.7,5-18.6,5c-10.7,0-19.2-4.2-25.5-12.7c-6.3-8.4-9.5-19.8-9.5-34c0-15.8,3.6-28.4,10.9-37.9
	c7.3-9.5,16.9-14.2,28.9-14.2c5.5,0,10.6,1.1,15.4,3.2c4.7,2.1,9.1,5.4,13,9.7v-31c0-7.9-0.6-12.6-1.9-14.1
	c-1.2-1.5-5.4-2.4-12.6-2.9L631,587v-5.4h15.4v-10.9h3.7V438.5H617v3.7h-11v-18.3h11v3.7h33.1v-43.6h-3.7v-11h3.7h11h3.7v11h-3.7
	v43.6h33.1v-3.7h11v18.3h-11v-3.7h-33.1v132.2h3.7v10.9h15.5v5.4l-1.7,0.1c-7.1,0.5-11.3,1.4-12.6,2.9c-1.1,1.3-1.7,5.3-1.9,12h0
	v94.3c0,7.9,0.6,12.6,1.9,14.1c1.2,1.5,5.4,2.5,12.6,3l0.4,0l0.4,0c7-0.5,11.2-1.5,12.5-3c1.3-1.5,2-6.2,2-14V647
	c0-7.8-0.7-12.5-2-14c-1.3-1.5-5.5-2.5-12.5-3l-1.7-0.1v-5.4H711v71.9c0,7.9,0.6,12.6,1.9,14.1C714.1,711.9,718.3,712.9,725.4,713.4
	z M647,641.9c-4.5-3.4-8.9-5.9-13.2-7.5c-4.4-1.7-8.6-2.5-12.9-2.5c-8,0-13.9,3.2-17.9,9.5c-4,6.3-6,15.8-6,28.4
	c0,13.4,1.9,23.5,5.8,30.2c3.9,6.7,9.7,10.1,17.4,10.1c5.2,0,10.1-1.2,14.5-3.7c4.5-2.5,8.6-6.2,12.3-11.1V641.9z M810,634.9
	c6.3,8.4,9.5,19.7,9.5,33.9c0,15.8-3.6,28.4-10.9,37.9c-7.2,9.5-16.9,14.3-28.9,14.3c-5.5,0-10.6-1.1-15.4-3.2
	c-4.8-2.1-9.1-5.4-13-9.6h-1l-2.2,11.7h-13.9V604.1c0-7.8-0.7-12.5-2-14c-1.3-1.5-5.5-2.5-12.5-3l-1.7-0.1v-5.4h33.2v60.5
	c4.3-6.6,9.2-11.6,14.7-14.9s11.7-5,18.5-5C795.2,622.3,803.7,626.5,810,634.9z M801.3,673.5c0-13.4-1.9-23.4-5.7-30.1
	c-3.8-6.7-9.6-10-17.3-10c-5.2,0-10,1.2-14.5,3.7c-4.5,2.5-8.6,6.2-12.5,11.1v53.3c4.6,3.4,9.1,5.9,13.4,7.6
	c4.4,1.7,8.6,2.5,12.8,2.5c8,0,13.9-3.2,17.8-9.5C799.4,695.7,801.3,686.2,801.3,673.5z M915.5,711c-0.9-1.1-1.6-6-2-14.6v-71.9
	h-33.2v5.4l1.6,0.1c7.4,0.5,11.6,1.3,12.5,2.4c0.9,1.1,1.6,6,2,14.6v48.4c-4.4,4.9-8.9,8.5-13.5,11c-4.6,2.4-9.2,3.7-14,3.7
	c-5.2,0-9-1.8-11.6-5.4c-2.6-3.6-3.9-9.1-3.9-16.3v-63.8h-33.2v5.4l1.7,0.1c7,0.5,11.2,1.5,12.5,3c1.3,1.5,2,6.2,2,14v44
	c0,9.3,2.3,16.7,7,22c4.6,5.4,11,8.1,19.1,8.1c7,0,13.3-1.7,19-5c5.6-3.3,10.6-8.3,15-14.9v17.7h33.2v-5.4l-1.6-0.1
	C920.6,712.9,916.4,712.1,915.5,711z M999.2,677.5c-3.5-3.8-9.6-7.5-18.3-11.1l-8-3.3c-8.1-3.3-13.5-6.2-16.2-8.7
	c-2.7-2.4-4.1-5.7-4.1-9.7c0-4.9,1.7-9,5-12.2c3.3-3.2,7.5-4.9,12.6-4.9c5.3,0,9.9,1.5,13.6,4.4c1.3,1,2.2,2.7,2.8,4.8
	c0.6,2.2,1,6.1,1.4,11.8v1.6h9.6v-22.5c-9.9-3.6-19.4-5.4-28.6-5.4c-9.4,0-17.2,2.5-23.3,7.5c-6.1,5-9.2,11.3-9.2,19
	c0,6.5,2.1,12,6.3,16.5c4.2,4.6,11.1,8.7,20.5,12.4l8.8,3.4c5.7,2.2,9.6,4.6,11.9,7.2c2.2,2.6,3.3,6.1,3.3,10.6c0,5-1.7,9.1-5,12.3
	c-3.3,3.2-7.6,4.8-12.8,4.8c-6.4,0-12.3-1.7-17.5-5.1c-2.7-1.7-4.2-3.2-4.6-4.3c-0.4-1.1-0.9-6-1.7-14.7l-0.2-1.7H936v24
	c10.1,4.7,20.9,7,32.2,7c10.7,0,19.4-2.7,26.1-8c6.7-5.3,10-12.2,10-20.6C1004.3,686.4,1002.6,681.4,999.2,677.5z"/>
</svg>
